<svg width="349" height="68" viewBox="0 0 349 68" fill="none" xmlns="http://www.w3.org/2000/svg">
<path d="M4.76837e-07 66.24V4.416H33.984C40.256 4.416 45.024 5.888 48.288 8.832C51.552 11.776 53.184 16 53.184 21.504C53.184 24.704 52.576 27.392 51.36 29.568C50.208 31.744 48.672 33.472 46.752 34.752C49.376 35.776 51.456 37.28 52.992 39.264C54.592 41.184 55.392 44.064 55.392 47.904C55.392 53.728 53.6 58.24 50.016 61.44C46.432 64.64 41.344 66.24 34.752 66.24H4.76837e-07ZM17.376 29.088H29.088C33.504 29.088 35.712 27.104 35.712 23.136C35.712 21.152 35.168 19.648 34.08 18.624C33.056 17.6 31.232 17.088 28.608 17.088H17.376V29.088ZM17.376 53.664H29.856C32.288 53.664 34.08 53.152 35.232 52.128C36.384 51.104 36.96 49.408 36.96 47.04C36.96 45.056 36.384 43.552 35.232 42.528C34.08 41.504 32.16 40.992 29.472 40.992H17.376V53.664ZM63.918 14.688V1.632H83.406V14.688H63.918ZM65.358 66.24V33.888H58.734L60.27 20.736H83.406V66.24H65.358ZM92.0625 66.24V1.536H110.111V33.504L122.783 20.736H143.231L125.087 39.936L144.287 66.24H125.087L113.855 49.344L110.111 53.088V66.24H92.0625ZM168.899 67.2C161.539 67.2 156.099 65.184 152.579 61.152C149.059 57.056 148.099 51.168 149.699 43.488C151.363 35.488 154.723 29.536 159.779 25.632C164.899 21.728 171.491 19.776 179.555 19.776C182.691 19.776 185.283 20 187.331 20.448C189.379 20.896 191.299 21.6 193.091 22.56L191.459 30.336C188.515 28.672 184.675 27.84 179.939 27.84C174.691 27.84 170.403 29.024 167.075 31.392C163.747 33.696 161.475 37.728 160.259 43.488C159.107 48.928 159.395 52.928 161.123 55.488C162.851 57.984 166.819 59.232 173.027 59.232C177.571 59.232 181.891 58.368 185.987 56.64L184.259 64.608C181.955 65.44 179.555 66.08 177.059 66.528C174.563 66.976 171.843 67.2 168.899 67.2ZM192.383 66.24L201.983 20.736H211.583L211.103 26.016C213.535 24.608 216.351 23.328 219.551 22.176C222.815 21.024 225.983 20.224 229.055 19.776L227.423 27.744C225.567 28.064 223.519 28.544 221.279 29.184C219.103 29.76 216.991 30.432 214.943 31.2C212.895 31.904 211.167 32.64 209.759 33.408L202.847 66.24H192.383ZM243.534 67.2C239.438 67.2 235.982 66.496 233.166 65.088C230.414 63.616 228.526 61.28 227.502 58.08C226.478 54.816 226.478 50.56 227.502 45.312C228.59 40 230.478 35.456 233.166 31.68C235.918 27.84 239.15 24.896 242.862 22.848C246.638 20.8 250.638 19.776 254.862 19.776C257.614 19.776 259.95 20.096 261.87 20.736C263.79 21.376 265.582 22.432 267.246 23.904L267.918 20.736H278.382L268.782 66.24H259.854L260.046 61.728C257.614 63.584 255.086 64.96 252.462 65.856C249.838 66.752 246.862 67.2 243.534 67.2ZM248.046 59.328C252.718 59.328 256.942 57.728 260.718 54.528L265.518 31.968C264.366 30.624 263.054 29.6 261.582 28.896C260.174 28.128 258.318 27.744 256.014 27.744C251.406 27.744 247.566 29.28 244.494 32.352C241.422 35.36 239.278 39.712 238.062 45.408C237.294 48.992 237.07 51.808 237.39 53.856C237.774 55.84 238.798 57.248 240.462 58.08C242.19 58.912 244.718 59.328 248.046 59.328ZM284.136 66.24L292.008 28.896H285.384L287.112 20.736H293.736L294.984 15.168C295.944 10.624 297.864 6.976 300.744 4.224C303.624 1.408 307.784 0 313.224 0C315.08 0 316.744 0.16 318.216 0.48C319.688 0.736 321.032 1.12 322.248 1.632L320.616 9.12C318.696 8.416 316.744 8.064 314.76 8.064C311.752 8.064 309.544 8.608 308.136 9.696C306.792 10.784 305.832 12.64 305.256 15.264L304.104 20.736H316.008L313.8 28.896H302.376L294.504 66.24H284.136ZM330.221 67.2C325.357 67.2 321.997 65.92 320.141 63.36C318.285 60.736 317.837 57.184 318.797 52.704L323.885 28.896H317.165L318.893 20.736H325.613L327.821 10.272L338.861 7.104L335.981 20.736H348.077L345.677 28.896H334.253L329.357 52.128C328.717 55.072 328.877 56.992 329.837 57.888C330.797 58.784 332.717 59.232 335.597 59.232C337.389 59.232 339.277 58.912 341.261 58.272L339.725 65.664C336.909 66.688 333.741 67.2 330.221 67.2Z" fill="black"/>
</svg>
